<?xml version="1.0" standalone="no"?>
<!DOCTYPE svg PUBLIC "-//W3C//DTD SVG 20010904//EN"
 "http://www.w3.org/TR/2001/REC-SVG-20010904/DTD/svg10.dtd">
<svg version="1.0" xmlns="http://www.w3.org/2000/svg"
 width="350.000000pt" height="134.000000pt" viewBox="0 0 350.000000 134.000000"
 preserveAspectRatio="xMidYMid meet">

<g transform="translate(0.000000,134.000000) scale(0.100000,-0.100000)"
fill="#000000" stroke="none">
<path d="M360 1323 c-52 -8 -124 -12 -160 -9 -80 5 -100 -4 -100 -48 0 -57 61
-96 150 -96 37 0 52 4 59 18 8 14 37 22 146 37 75 10 140 24 146 31 16 20 1
52 -31 69 -35 18 -84 18 -210 -2z"/>
<path d="M2382 1297 c-12 -12 -33 -58 -48 -102 -39 -117 -67 -167 -120 -214
-49 -43 -64 -50 -64 -28 0 6 16 22 35 34 53 35 61 103 13 103 -29 0 -145 -85
-154 -112 -11 -36 6 -121 30 -152 22 -27 26 -28 60 -16 50 16 141 92 170 143
14 23 28 62 32 87 10 68 26 86 19 21 -3 -30 -6 -57 -7 -60 -3 -30 6 -50 27
-61 32 -17 31 -24 -5 -70 -16 -21 -30 -43 -30 -50 0 -6 -11 -30 -24 -53 -13
-23 -31 -65 -39 -93 -16 -55 -10 -74 25 -74 26 0 168 73 200 103 55 51 48 120
-15 150 -43 22 -46 35 -20 120 16 50 21 57 38 51 79 -25 120 -28 245 -16 121
11 190 29 190 51 0 22 -31 79 -45 85 -54 20 -108 -11 -62 -36 21 -11 20 -12
-18 -19 -48 -9 -261 -11 -291 -3 -18 5 -22 16 -27 67 -7 69 -32 148 -50 159
-21 14 -43 8 -65 -15z m-25 -169 c-3 -7 -5 -2 -5 12 0 14 2 19 5 13 2 -7 2
-19 0 -25z m91 -340 c24 -24 13 -48 -30 -67 -24 -10 -44 -17 -46 -16 -2 1 7
23 20 49 23 47 35 55 56 34z"/>
<path d="M1883 1275 c-25 -25 -33 -42 -33 -68 0 -20 -9 -46 -22 -63 l-22 -29
25 23 c14 12 28 22 31 22 3 0 1 -21 -3 -47 -12 -61 -15 -205 -5 -221 9 -15 29
-15 79 -1 53 14 77 70 87 198 10 125 -2 188 -38 203 -47 19 -66 16 -99 -17z"/>
<path d="M1216 1257 c-14 -18 -28 -53 -31 -77 -14 -107 -15 -108 -40 -112
l-25 -5 20 32 20 33 -27 21 c-14 12 -33 19 -41 16 -7 -3 -18 -5 -22 -5 -5 0
-25 -14 -45 -31 -35 -32 -42 -52 -25 -79 8 -12 12 -11 32 7 34 31 66 38 70 16
3 -13 -10 -26 -44 -46 -36 -20 -48 -33 -48 -51 0 -39 20 -48 73 -32 l45 14
-10 -24 c-9 -18 -19 -24 -45 -24 -19 0 -41 -7 -49 -15 -19 -19 -78 -20 -93 -1
-16 19 -41 105 -41 142 0 50 -42 73 -80 44 -21 -15 -23 -25 -21 -78 2 -54 0
-62 -21 -73 -13 -7 -34 -12 -48 -10 -14 1 -46 -7 -72 -19 -25 -11 -84 -31
-130 -44 -107 -31 -335 -135 -396 -180 -68 -50 -111 -98 -114 -126 -5 -43 42
-39 125 13 98 61 137 79 240 116 114 40 122 40 103 3 -8 -16 -22 -34 -30 -41
-9 -8 -16 -22 -16 -32 0 -11 -22 -64 -50 -119 -57 -113 -64 -159 -28 -184 35
-25 83 -19 161 20 136 68 177 118 177 214 0 60 -23 90 -73 90 -17 1 -42 6 -54
13 -22 12 -22 12 17 63 37 48 44 53 112 69 112 27 112 27 105 96 -5 59 5 81
17 35 3 -14 25 -44 49 -68 24 -24 46 -51 50 -60 4 -13 17 -18 44 -18 74 0 144
65 171 157 7 23 23 49 35 58 22 15 22 15 28 -52 3 -38 9 -78 13 -89 6 -19 2
-22 -36 -28 -48 -7 -94 -33 -157 -87 -95 -83 -27 -135 204 -159 73 -7 137 -7
221 0 168 16 187 21 198 52 13 36 0 77 -29 90 -29 13 -75 3 -75 -16 0 -18 -89
-27 -285 -29 -139 -2 -195 5 -195 23 0 5 15 26 32 46 37 42 98 73 145 74 44 0
61 21 67 82 3 29 10 105 17 169 7 64 9 138 6 164 -8 79 -58 99 -101 42z m-9
-139 c-3 -8 -6 -5 -6 6 -1 11 2 17 5 13 3 -3 4 -12 1 -19z m-577 -563 c23 -27
-15 -91 -72 -121 -27 -14 -68 -19 -68 -9 0 11 53 111 68 128 18 21 55 22 72 2z"/>
<path d="M1505 1114 c-80 -81 -145 -151 -145 -155 0 -17 40 -49 61 -49 12 0
38 14 60 30 l38 31 7 -61 c15 -131 88 -121 161 24 14 27 44 75 66 106 l40 55
-67 -68 c-41 -42 -73 -67 -84 -65 -9 2 -26 19 -36 39 l-19 35 46 57 c47 58 75
123 64 151 -15 38 -50 14 -192 -130z"/>
<path d="M442 1115 c-33 -30 -63 -55 -67 -55 -4 0 -5 23 -3 50 3 55 -3 60 -51
35 -34 -17 -63 -81 -66 -146 -1 -40 -7 -50 -48 -88 -51 -47 -59 -74 -26 -92
40 -21 119 -4 249 53 69 31 136 59 148 63 22 6 23 5 12 -15 -21 -40 -5 -30 59
34 56 57 62 66 52 85 -17 31 -56 36 -135 16 -39 -10 -77 -21 -85 -23 -9 -3 -4
9 11 29 43 57 51 78 37 95 -6 8 -15 14 -20 14 -4 0 -35 -25 -67 -55z"/>
<path d="M3309 907 c-48 -32 -71 -81 -64 -136 6 -52 26 -77 67 -86 26 -6 36
-2 69 31 21 21 42 34 46 30 4 -4 -3 -49 -16 -100 -13 -52 -21 -101 -18 -110
10 -27 46 -19 66 15 26 42 44 171 34 239 -7 46 -13 57 -36 68 -15 7 -37 26
-49 43 -26 35 -53 37 -99 6z m101 -94 l23 -26 -23 -19 c-39 -32 -57 -21 -51
32 6 47 18 51 51 13z"/>
<path d="M2876 890 c-123 -130 -110 -279 19 -230 l26 10 -7 -53 c-4 -28 -8
-54 -10 -56 -8 -9 19 -41 35 -41 26 0 36 16 54 80 8 30 23 76 33 101 15 39 16
53 6 86 -6 21 -21 49 -32 61 -11 12 -25 33 -30 46 -12 33 -61 31 -94 -4z m40
-148 c-37 -38 -43 -19 -10 30 27 40 29 41 32 19 3 -16 -5 -33 -22 -49z"/>
<path d="M3047 903 c-12 -3 -17 -12 -15 -26 3 -19 9 -22 48 -22 l45 0 -3 -60
c-1 -33 -9 -113 -19 -178 -19 -138 -13 -167 37 -167 36 0 44 16 66 128 27 140
12 286 -33 320 -16 12 -89 15 -126 5z"/>
<path d="M2675 738 c-5 -129 -4 -159 10 -191 11 -26 21 -37 32 -35 23 4 46
116 39 186 -3 28 -9 78 -12 110 -6 55 -22 82 -50 82 -8 0 -14 -45 -19 -152z"/>
<path d="M1715 858 c-37 -13 -105 -76 -105 -98 0 -9 13 -29 29 -45 26 -24 36
-27 67 -22 20 4 63 24 96 47 49 33 62 38 79 29 56 -30 52 -144 -17 -419 -44
-178 -59 -284 -44 -320 10 -25 18 -30 38 -28 14 2 34 15 45 30 17 23 19 31 9
54 -11 22 -7 43 24 147 20 67 47 142 59 167 34 66 49 152 41 242 -9 105 -36
167 -89 201 -36 24 -50 27 -122 26 -44 0 -93 -5 -110 -11z"/>
</g>
</svg>
